<svg xmlns="http://www.w3.org/2000/svg" xmlns:xlink="http://www.w3.org/1999/xlink" viewBox="0 0 225.31 105.78"><defs><style>.cls-1{opacity:0.42;}.cls-2{opacity:0.3;}.cls-3{fill:url(#linear-gradient);}.cls-4{fill:url(#linear-gradient-2);}.cls-5{fill:url(#linear-gradient-3);}.cls-6{fill:url(#linear-gradient-4);}.cls-7{fill:url(#linear-gradient-5);}.cls-8{fill:url(#linear-gradient-6);}.cls-9{fill:url(#linear-gradient-7);}.cls-10{fill:url(#linear-gradient-8);}.cls-11{fill:url(#linear-gradient-9);}.cls-12{fill:url(#linear-gradient-10);}.cls-13{fill:url(#linear-gradient-11);}.cls-14{fill:url(#linear-gradient-12);}.cls-15{fill:url(#linear-gradient-13);}.cls-16{fill:url(#linear-gradient-14);}.cls-17{fill:url(#linear-gradient-15);}.cls-18{fill:url(#linear-gradient-16);}.cls-19{fill:url(#linear-gradient-17);}.cls-20{fill:url(#linear-gradient-18);}.cls-21{fill:url(#linear-gradient-19);}.cls-22{fill:url(#linear-gradient-20);}.cls-23{fill:url(#linear-gradient-21);}.cls-24{fill:url(#linear-gradient-23);}.cls-25{fill:url(#linear-gradient-24);}.cls-26{fill:url(#linear-gradient-25);}.cls-27{fill:url(#linear-gradient-26);}.cls-28{fill:url(#linear-gradient-27);}.cls-29{fill:url(#linear-gradient-28);}.cls-30{fill:url(#linear-gradient-29);}.cls-31{fill:url(#linear-gradient-30);}.cls-32{fill:url(#linear-gradient-31);}.cls-33{fill:url(#linear-gradient-32);}.cls-34{fill:url(#linear-gradient-33);}.cls-35{fill:url(#linear-gradient-34);}.cls-36{fill:url(#linear-gradient-35);}.cls-37{fill:url(#linear-gradient-36);}.cls-38{fill:url(#linear-gradient-37);}.cls-39{fill:#0cbf6d;}.cls-40{fill:#70f2b1;}.cls-41{fill:#fdfffe;}.cls-42{fill:#fff;}.cls-43{fill:#dff8ef;}.cls-44{fill:url(#linear-gradient-38);}.cls-45{fill:url(#linear-gradient-39);}.cls-46{fill:#b9f9dc;}</style><linearGradient id="linear-gradient" x1="25.73" y1="60.97" x2="198.79" y2="60.97" gradientUnits="userSpaceOnUse"><stop offset="0" stop-color="#2ad38b"/><stop offset="0.58" stop-color="#28de86"/><stop offset="1" stop-color="#0fd186"/></linearGradient><linearGradient id="linear-gradient-2" x1="51.32" y1="74.76" x2="175.42" y2="74.76" xlink:href="#linear-gradient"/><linearGradient id="linear-gradient-3" x1="215.58" y1="66.41" x2="225.31" y2="66.41" xlink:href="#linear-gradient"/><linearGradient id="linear-gradient-4" x1="124.53" y1="12.49" x2="139.52" y2="12.49" gradientTransform="translate(113.75 -118.85) rotate(76.67)" xlink:href="#linear-gradient"/><linearGradient id="linear-gradient-5" x1="57.16" y1="30.8" x2="63.58" y2="30.8" xlink:href="#linear-gradient"/><linearGradient id="linear-gradient-6" x1="158.28" y1="24.92" x2="164.7" y2="24.92" xlink:href="#linear-gradient"/><linearGradient id="linear-gradient-7" x1="87.48" y1="3.21" x2="93.9" y2="3.21" xlink:href="#linear-gradient"/><linearGradient id="linear-gradient-8" x1="199.49" y1="84.94" x2="202.12" y2="84.94" xlink:href="#linear-gradient"/><linearGradient id="linear-gradient-9" x1="158.98" y1="2.22" x2="160.96" y2="2.22" xlink:href="#linear-gradient"/><linearGradient id="linear-gradient-10" x1="60.36" y1="7.15" x2="62.94" y2="7.15" xlink:href="#linear-gradient"/><linearGradient id="linear-gradient-11" x1="5.98" y1="35.91" x2="9.4" y2="35.91" xlink:href="#linear-gradient"/><linearGradient id="linear-gradient-12" x1="212.16" y1="48.45" x2="215.58" y2="48.45" xlink:href="#linear-gradient"/><linearGradient id="linear-gradient-13" x1="16.88" y1="34.42" x2="31.41" y2="34.42" xlink:href="#linear-gradient"/><linearGradient id="linear-gradient-14" x1="12.11" y1="81.93" x2="15.54" y2="81.93" xlink:href="#linear-gradient"/><linearGradient id="linear-gradient-15" x1="190.66" y1="30.8" x2="204.74" y2="30.8" xlink:href="#linear-gradient"/><linearGradient id="linear-gradient-16" x1="6.91" y1="62.62" x2="20.74" y2="62.62" xlink:href="#linear-gradient"/><linearGradient id="linear-gradient-17" x1="77.53" y1="12.49" x2="83.3" y2="12.49" xlink:href="#linear-gradient"/><linearGradient id="linear-gradient-18" x1="79.66" y1="12.49" x2="81.16" y2="12.49" xlink:href="#linear-gradient"/><linearGradient id="linear-gradient-19" x1="171.25" y1="19.24" x2="177.02" y2="19.24" xlink:href="#linear-gradient"/><linearGradient id="linear-gradient-20" x1="173.39" y1="19.24" x2="174.89" y2="19.24" xlink:href="#linear-gradient"/><linearGradient id="linear-gradient-21" x1="46.04" y1="36.69" x2="50.57" y2="36.69" xlink:href="#linear-gradient"/><linearGradient id="linear-gradient-23" x1="20.35" y1="82.18" x2="24.14" y2="82.18" xlink:href="#linear-gradient"/><linearGradient id="linear-gradient-24" x1="195.49" y1="19.24" x2="199.29" y2="19.24" xlink:href="#linear-gradient"/><linearGradient id="linear-gradient-25" x1="204.8" y1="56.88" x2="208.6" y2="56.88" xlink:href="#linear-gradient"/><linearGradient id="linear-gradient-26" x1="29.79" y1="17.1" x2="33.58" y2="17.1" xlink:href="#linear-gradient"/><linearGradient id="linear-gradient-27" x1="117.86" y1="11.74" x2="122.98" y2="11.74" xlink:href="#linear-gradient"/><linearGradient id="linear-gradient-28" x1="154.08" y1="31" x2="197.91" y2="31" xlink:href="#linear-gradient"/><linearGradient id="linear-gradient-29" x1="149.01" y1="31" x2="152.94" y2="31" xlink:href="#linear-gradient"/><linearGradient id="linear-gradient-30" x1="140.75" y1="31" x2="146.52" y2="31" xlink:href="#linear-gradient"/><linearGradient id="linear-gradient-31" x1="142.89" y1="31" x2="144.39" y2="31" xlink:href="#linear-gradient"/><linearGradient id="linear-gradient-32" x1="64.64" y1="23.91" x2="70.41" y2="23.91" xlink:href="#linear-gradient"/><linearGradient id="linear-gradient-33" x1="66.77" y1="23.91" x2="68.27" y2="23.91" xlink:href="#linear-gradient"/><linearGradient id="linear-gradient-34" x1="31.06" y1="49.97" x2="58.71" y2="49.97" xlink:href="#linear-gradient"/><linearGradient id="linear-gradient-35" x1="0" y1="23.91" x2="52.33" y2="23.91" xlink:href="#linear-gradient"/><linearGradient id="linear-gradient-36" x1="56.15" y1="23.91" x2="62.47" y2="23.91" xlink:href="#linear-gradient"/><linearGradient id="linear-gradient-37" x1="22.63" y1="54.49" x2="25.57" y2="54.49" xlink:href="#linear-gradient"/><linearGradient id="linear-gradient-38" x1="107.53" y1="35.81" x2="116.87" y2="35.81" xlink:href="#linear-gradient"/><linearGradient id="linear-gradient-39" x1="106.44" y1="48.18" x2="118.06" y2="48.18" xlink:href="#linear-gradient"/></defs><title>Asset 1</title><g id="Layer_2" data-name="Layer 2"><g id="Payment_Methods" data-name="Payment Methods"><g class="cls-1"><g class="cls-2"><path class="cls-3" d="M198.79,105.78a85.17,85.17,0,0,0-7.35-34.71,27,27,0,0,0-32.26-37.4,85.11,85.11,0,0,0-45.81-13.31q-3.15,0-6.25.23a22,22,0,0,0-33.78,9.72A86,86,0,0,0,55.52,42.93a24.71,24.71,0,0,0-5.41-.61A24.39,24.39,0,0,0,31.26,82.17,85.18,85.18,0,0,0,28,105.78Z"/></g><g class="cls-2"><path class="cls-4" d="M175.42,105.78a62.05,62.05,0,1,0-124.1,0Z"/></g><g class="cls-2"><path class="cls-5" d="M225.31,66.41a4.87,4.87,0,1,1-4.87-4.87A4.87,4.87,0,0,1,225.31,66.41Z"/></g><g class="cls-2"><circle class="cls-6" cx="132.02" cy="12.49" r="7.49" transform="translate(89.44 138.08) rotate(-76.67)"/></g><g class="cls-2"><path class="cls-7" d="M63.58,30.8a3.21,3.21,0,1,1-3.21-3.21A3.2,3.2,0,0,1,63.58,30.8Z"/></g><g class="cls-2"><circle class="cls-8" cx="161.49" cy="24.92" r="3.21"/></g><g class="cls-2"><path class="cls-9" d="M93.9,3.21A3.21,3.21,0,1,1,90.69,0,3.21,3.21,0,0,1,93.9,3.21Z"/></g><g class="cls-2"><path class="cls-10" d="M202.12,84.94a1.32,1.32,0,1,1-1.32-1.31A1.32,1.32,0,0,1,202.12,84.94Z"/></g><g class="cls-2"><path class="cls-11" d="M161,2.22a1,1,0,1,1-1-1A1,1,0,0,1,161,2.22Z"/></g><g class="cls-2"><circle class="cls-12" cx="61.65" cy="7.15" r="1.29"/></g><g class="cls-2"><path class="cls-13" d="M9.4,35.91a1.71,1.71,0,1,1-1.71-1.72A1.72,1.72,0,0,1,9.4,35.91Z"/></g><g class="cls-2"><path class="cls-14" d="M215.58,48.45a1.71,1.71,0,1,1-1.71-1.71A1.72,1.72,0,0,1,215.58,48.45Z"/></g><g class="cls-2"><circle class="cls-15" cx="24.14" cy="34.42" r="7.26"/></g><g class="cls-2"><path class="cls-16" d="M15.54,81.93a1.72,1.72,0,1,1-1.71-1.71A1.72,1.72,0,0,1,15.54,81.93Z"/></g><g class="cls-2"><path class="cls-17" d="M204.74,30.8a7,7,0,1,1-7-7A7,7,0,0,1,204.74,30.8Z"/></g><g class="cls-2"><circle class="cls-18" cx="13.83" cy="62.62" r="6.92"/></g></g><path class="cls-19" d="M82.55,13.24H78.28a.75.75,0,0,1,0-1.5h4.27a.75.75,0,0,1,0,1.5Z"/><path class="cls-20" d="M80.41,15.38a.75.75,0,0,1-.75-.75V10.36a.75.75,0,0,1,1.5,0v4.27A.74.74,0,0,1,80.41,15.38Z"/><path class="cls-21" d="M176.27,20H172a.75.75,0,0,1,0-1.5h4.27a.75.75,0,0,1,0,1.5Z"/><path class="cls-22" d="M174.14,22.13a.75.75,0,0,1-.75-.75V17.1a.75.75,0,1,1,1.5,0v4.28A.76.76,0,0,1,174.14,22.13Z"/><path class="cls-23" d="M46.79,39a.79.79,0,0,1-.53-.22.75.75,0,0,1,0-1.06l3-3a.75.75,0,0,1,1.06,1.06l-3,3A.75.75,0,0,1,46.79,39Z"/><path class="cls-23" d="M49.82,39a.75.75,0,0,1-.53-.22l-3-3a.75.75,0,0,1,1.06-1.06l3,3a.75.75,0,0,1,0,1.06A.79.79,0,0,1,49.82,39Z"/><polygon class="cls-24" points="20.34 81.09 22.25 79.99 24.14 81.09 24.14 83.28 22.25 84.38 20.34 83.28 20.34 81.09"/><polygon class="cls-25" points="195.49 18.14 197.39 17.05 199.29 18.14 199.29 20.34 197.39 21.43 195.49 20.34 195.49 18.14"/><polygon class="cls-26" points="204.8 55.78 206.7 54.69 208.6 55.78 208.6 57.98 206.7 59.07 204.8 57.98 204.8 55.78"/><polygon class="cls-27" points="29.79 16 31.68 14.91 33.58 16 33.58 18.2 31.68 19.29 29.79 18.2 29.79 16"/><polygon class="cls-28" points="117.86 10.27 120.42 8.79 122.98 10.27 122.98 13.22 120.42 14.7 117.86 13.22 117.86 10.27"/><path class="cls-29" d="M197.16,31.75H154.83a.75.75,0,0,1,0-1.5h42.33a.75.75,0,0,1,0,1.5Z"/><path class="cls-30" d="M152.19,31.75h-2.43a.75.75,0,0,1,0-1.5h2.43a.75.75,0,0,1,0,1.5Z"/><path class="cls-31" d="M145.77,31.75H141.5a.75.75,0,0,1,0-1.5h4.27a.75.75,0,0,1,0,1.5Z"/><path class="cls-32" d="M143.64,33.89a.75.75,0,0,1-.75-.75V28.86a.75.75,0,0,1,1.5,0v4.28A.76.76,0,0,1,143.64,33.89Z"/><path class="cls-33" d="M69.66,24.66H65.39a.75.75,0,0,1,0-1.5h4.27a.75.75,0,0,1,0,1.5Z"/><path class="cls-34" d="M67.52,26.79a.75.75,0,0,1-.75-.75V21.77a.75.75,0,1,1,1.5,0V26A.74.74,0,0,1,67.52,26.79Z"/><path class="cls-35" d="M58,50.72H31.81a.75.75,0,0,1,0-1.5H58a.75.75,0,1,1,0,1.5Z"/><path class="cls-36" d="M51.58,24.66H.75a.75.75,0,0,1,0-1.5H51.58a.75.75,0,0,1,0,1.5Z"/><path class="cls-37" d="M61.72,24.66H56.9a.75.75,0,0,1,0-1.5h4.82a.75.75,0,0,1,0,1.5Z"/><polygon class="cls-38" points="22.63 53.64 24.1 52.79 25.57 53.64 25.57 55.34 24.1 56.19 22.63 55.34 22.63 53.64"/><path class="cls-39" d="M208.68,104.86H24.5a.75.75,0,0,1,0-1.5H208.68a.75.75,0,0,1,0,1.5Z"/><path class="cls-39" d="M214.11,104.86h-2.72a.75.75,0,0,1,0-1.5h2.72a.75.75,0,0,1,0,1.5Z"/><path class="cls-39" d="M21.8,104.86H17.19a.75.75,0,1,1,0-1.5H21.8a.75.75,0,0,1,0,1.5Z"/><path class="cls-39" d="M177.36,85.47a.74.74,0,0,1-.75-.75V56.9h-7a.76.76,0,0,1,0-1.52h7.75a.76.76,0,0,1,.76.76V84.72A.75.75,0,0,1,177.36,85.47Z"/><path class="cls-39" d="M127.51,59.42a.76.76,0,0,1-.76-.75V55.38h32a.76.76,0,0,1,0,1.52H128.26v1.77A.76.76,0,0,1,127.51,59.42Z"/><path class="cls-39" d="M164.2,59.61A2.17,2.17,0,0,1,162,57.5a.76.76,0,1,1,1.51,0,.71.71,0,1,0,.7-.6,2.12,2.12,0,1,1,2.21-2.12.76.76,0,1,1-1.51,0,.71.71,0,1,0-.7.6,2.12,2.12,0,1,1,0,4.23Z"/><path class="cls-39" d="M164.2,54.18a.76.76,0,0,1-.76-.76v-.66a.76.76,0,1,1,1.52,0v.66A.76.76,0,0,1,164.2,54.18Z"/><path class="cls-39" d="M164.2,62.31a6.17,6.17,0,1,1,6.17-6.17A6.18,6.18,0,0,1,164.2,62.31Zm0-10.83a4.66,4.66,0,1,0,4.66,4.66A4.66,4.66,0,0,0,164.2,51.48Z"/><rect class="cls-40" x="69.38" y="96.23" width="84.99" height="6.38" rx="0.98"/><rect class="cls-40" x="73.96" y="46.42" width="76.61" height="49.82" rx="0.98"/><rect class="cls-41" x="78.67" y="51.21" width="68.08" height="40.58" rx="0.98"/><path class="cls-39" d="M154.88,95.15H152.3V49.75A5.29,5.29,0,0,0,147,44.47H77.23a5.29,5.29,0,0,0-5.29,5.28v45.4H69.37a1.28,1.28,0,0,0-1.29,1.28V98A6.9,6.9,0,0,0,75,104.86h74.3A6.9,6.9,0,0,0,156.16,98V96.43A1.28,1.28,0,0,0,154.88,95.15ZM74.51,49.75A2.72,2.72,0,0,1,77.23,47H147a2.71,2.71,0,0,1,2.71,2.71V95H74.51Zm45.84,48v1H103.9v-1Zm33.24.25a4.31,4.31,0,0,1-4.32,4.32H75A4.32,4.32,0,0,1,70.65,98v-.25h30.68V100a1.28,1.28,0,0,0,1.28,1.28h19a1.28,1.28,0,0,0,1.29-1.28V97.72h30.67Z"/><path class="cls-39" d="M143.83,49.48H80.42a3.81,3.81,0,0,0-3.81,3.8V91.47a1.29,1.29,0,0,0,1.29,1.29h68.45a1.28,1.28,0,0,0,1.28-1.29V53.28A3.8,3.8,0,0,0,143.83,49.48Zm1.23,40.71H79.18V53.28a1.24,1.24,0,0,1,1.24-1.23h63.41a1.24,1.24,0,0,1,1.23,1.23Z"/><path class="cls-40" d="M92.43,60.32l1.19,2.41a.64.64,0,0,0,.5.37l2.66.39a.67.67,0,0,1,.38,1.15l-1.93,1.88a.64.64,0,0,0-.19.59l.45,2.65a.67.67,0,0,1-1,.71l-2.37-1.25a.7.7,0,0,0-.63,0l-2.38,1.25a.68.68,0,0,1-1-.71l.45-2.65a.64.64,0,0,0-.19-.59l-1.92-1.88a.67.67,0,0,1,.37-1.15l2.66-.39a.68.68,0,0,0,.51-.37l1.19-2.41a.68.68,0,0,1,1.21,0Z"/><path class="cls-39" d="M87.58,67.12l-.43,2.47a1.69,1.69,0,0,0,2.45,1.78l2.22-1.17L94,71.37a1.69,1.69,0,0,0,2.45-1.78l-.42-2.47,1.79-1.76a1.68,1.68,0,0,0-.93-2.87l-2.48-.36-1.12-2.25a1.68,1.68,0,0,0-3,0L89.2,62.13l-2.49.36a1.66,1.66,0,0,0-1.36,1.15,1.69,1.69,0,0,0,.43,1.73Zm2.08-3a1.7,1.7,0,0,0,1.28-.92l.88-1.79.89,1.79A1.67,1.67,0,0,0,94,64.1l2,.29-1.43,1.4A1.7,1.7,0,0,0,94,67.28l.34,2-1.77-.93a1.72,1.72,0,0,0-.79-.2,1.65,1.65,0,0,0-.78.2l-1.78.93.34-2a1.69,1.69,0,0,0-.48-1.49l-1.44-1.4Z"/><path class="cls-39" d="M138.65,70.45H101.86a1,1,0,1,0,0,2h36.79a1,1,0,0,0,0-2Z"/><path class="cls-39" d="M138.65,74.65H84.83a1,1,0,1,0,0,2h53.82a1,1,0,0,0,0-2Z"/><path class="cls-39" d="M138.65,78.84H84.83a1,1,0,1,0,0,2h53.82a1,1,0,0,0,0-2Z"/><circle class="cls-42" cx="111.56" cy="42.08" r="14.8"/><path class="cls-43" d="M95.27,40.69a17.25,17.25,0,1,0,18.57-15.8A17.26,17.26,0,0,0,95.27,40.69ZM99.4,41a13.1,13.1,0,1,1,12,14.1A13.1,13.1,0,0,1,99.4,41Z"/><path class="cls-39" d="M112.48,59.93c-.48,0-1,0-1.45,0a17.86,17.86,0,0,1,2.86-35.61,18.4,18.4,0,0,1,3.54.65l-.34,1.18A16.64,16.64,0,0,0,99.8,52.86a16.63,16.63,0,0,0,26.8-19.54l1-.65a17.65,17.65,0,0,1,2.62,10.84A17.87,17.87,0,0,1,112.48,59.93Zm13.14-28a17,17,0,0,0-1.43-1.63l.87-.87a19.55,19.55,0,0,1,1.53,1.75ZM122.79,29a16.74,16.74,0,0,0-3.93-2.32l.47-1.13a17.82,17.82,0,0,1,4.23,2.49Z"/><path class="cls-44" d="M108.74,40.61h-.16c-.27,0-.49-.22-.49-1.51l-.5-4.08a1.61,1.61,0,0,1,.79-1.57c.23-.13.41-.26.41-.26-1.59-1-1.24-2.06-1.21-2.19h0c.77,1.13,4.88.61,7.28,1a1.32,1.32,0,0,1,1.1,1.11l.06.45h0a.86.86,0,0,1,.85.86l-.66,5.73a.49.49,0,0,1-.49.49Z"/><path class="cls-39" d="M115.72,41.23h-7.14c-1.11,0-1.11-1.44-1.11-2.13l-.48-4a2.22,2.22,0,0,1,.75-1.94,2.36,2.36,0,0,1-.77-2.27l.14-.56.68.1.19.07.11.16c.32.48,2.45.52,3.86.54a23.26,23.26,0,0,1,3,.18A1.92,1.92,0,0,1,116.57,33v0a1.47,1.47,0,0,1,.91,1.36l-.66,5.8A1.09,1.09,0,0,1,115.72,41.23Zm-7-1.23h6.84l.65-5.68a.25.25,0,0,0-.24-.17h-.54l-.13-1a.68.68,0,0,0-.58-.58,24.29,24.29,0,0,0-2.85-.16,17.83,17.83,0,0,1-3.44-.27,2.57,2.57,0,0,0,.63.52l.81.5-.79.53-.44.28a1,1,0,0,0-.49,1l.49,4.09A5.32,5.32,0,0,0,108.77,40Z"/><path class="cls-39" d="M116.79,40a1.16,1.16,0,0,1-1.16-1.16v-.52a1.16,1.16,0,1,1,2.32,0v.52A1.16,1.16,0,0,1,116.79,40Z"/><path class="cls-39" d="M107.57,40a1.16,1.16,0,0,1-1.16-1.16v-.52a1.16,1.16,0,0,1,2.32,0v.52A1.16,1.16,0,0,1,107.57,40Z"/><path class="cls-45" d="M118.06,52.46V48.88c0-2.75-2.61-5-5.81-5h0c-3.2,0-5.81,2.24-5.81,5v3.58Z"/><path class="cls-39" d="M118.68,52.46h-1.23V48.88c0-2.42-2.33-4.38-5.2-4.38s-5.2,2-5.2,4.38v3.58h-1.23V48.88c0-3.09,2.89-5.61,6.43-5.61s6.43,2.52,6.43,5.61Z"/><rect class="cls-39" x="109.11" y="48.53" width="1.23" height="3.93"/><rect class="cls-39" x="114.2" y="48.53" width="1.23" height="3.93"/><path class="cls-42" d="M112,45.9h0A1.08,1.08,0,0,1,111,44.82V42.36a.94.94,0,0,1,.94-.93h.3a.94.94,0,0,1,.94.93v2.46A1.08,1.08,0,0,1,112,45.9Z"/><path class="cls-39" d="M112,46.52a1.7,1.7,0,0,1-1.7-1.7V42.36a1.54,1.54,0,0,1,1.55-1.54h.3a1.54,1.54,0,0,1,1.55,1.54v2.46A1.7,1.7,0,0,1,112,46.52ZM111.89,42a.33.33,0,0,0-.33.32v2.46a.48.48,0,0,0,.48.47.47.47,0,0,0,.47-.47V42.36a.32.32,0,0,0-.32-.32Z"/><path class="cls-42" d="M112.13,43.76h0A4.15,4.15,0,0,1,108,39.62v-2.8c0-2.28,1.86-2.22,4.14-2.22h0c2.27,0,4.13-.06,4.13,2.22v2.8A4.15,4.15,0,0,1,112.13,43.76Z"/><path class="cls-39" d="M112.13,44.37a4.75,4.75,0,0,1-4.75-4.75v-2.8a2.44,2.44,0,0,1,1.56-2.52,9.13,9.13,0,0,1,3-.32h.3a8.88,8.88,0,0,1,3,.32,2.44,2.44,0,0,1,1.56,2.52v2.8A4.75,4.75,0,0,1,112.13,44.37Zm-.29-9.16a8,8,0,0,0-2.46.23c-.4.16-.77.43-.77,1.38v2.8a3.52,3.52,0,0,0,7,0v-2.8c0-1-.37-1.22-.77-1.38a8.51,8.51,0,0,0-2.6-.23h-.44Z"/><ellipse class="cls-40" cx="58.63" cy="89.8" rx="3.79" ry="3.72"/><polygon class="cls-40" points="33.35 91.62 41.18 91.62 41.18 95.88 42.36 96.65 42.36 98.11 41.18 98.11 41.18 100.07 41.76 101.21 41.76 102.78 44.08 102.82 44.08 101.21 46.03 100.59 46.32 98.93 44.04 98.36 44.49 94.37 43.31 93.23 43.59 91.62 44.67 91.62 45.18 89.36 42.9 88.75 43.47 86.38 44.04 86.38 44.49 85.81 44.58 84.99 52.46 84.56 52.46 86.62 50.88 87.52 51.56 88.75 52.46 89.8 52.46 91.26 51.17 91.35 50.88 93.22 52.46 94.37 52.46 97.79 53.17 98.51 53.72 99.78 52.55 101.21 52.73 102.36 55.9 102.78 55.45 96.65 55.13 95.88 54.84 93.69 62.3 93.69 62.96 95.88 63.89 97.22 63.89 103.38 34.24 102.82 34.24 100.59 33.35 100.59 33.35 98.94 34.24 98.11 34.24 96.65 33.35 95.88 33.35 91.62"/><path class="cls-39" d="M64.58,102.36V96.08a.57.57,0,0,0-.57-.57h-.57V93.8a.58.58,0,0,0-.57-.58h-1a4.56,4.56,0,1,0-6.44-.42,3.42,3.42,0,0,0,.43.42h-1a.57.57,0,0,0-.57.58v2.28a.57.57,0,0,0,.57.57h.57v5.71H53.17v-1.15h.57a.57.57,0,0,0,.57-.57V98.36a.58.58,0,0,0-.57-.57h-.57v-4a.58.58,0,0,0-.57-.58H52V92.08h.57a.57.57,0,0,0,.57-.57V89.23a.58.58,0,0,0-.57-.57H52V87.52h.57a.58.58,0,0,0,.57-.57V84.67a.58.58,0,0,0-.57-.58H49.17V81.81h.57A6.28,6.28,0,0,0,56,75.54a.57.57,0,0,0-.57-.58H54.31a6.31,6.31,0,0,0-5.14,2.69V74.39h.57a4.57,4.57,0,0,0,4.57-4.56.57.57,0,0,0-.57-.57H52.6a4.55,4.55,0,0,0-4,2.36,4.55,4.55,0,0,0-4-2.36H43.47a.56.56,0,0,0-.57.57,4.56,4.56,0,0,0,4.56,4.56H48v3.26A6.29,6.29,0,0,0,42.9,75H41.75a.58.58,0,0,0-.57.58,6.28,6.28,0,0,0,6.28,6.27H48v2.28H44.61a.57.57,0,0,0-.57.58v1.71h-.57a.56.56,0,0,0-.57.57v2.28a.56.56,0,0,0,.57.57H44v1.14h-.57a.57.57,0,0,0-.57.57V93.8a.57.57,0,0,0,.57.57H44v4a.56.56,0,0,0,.57.57h.57v1.14h-.57a.57.57,0,0,0-.57.57v1.72H42.9v-1.72a.58.58,0,0,0-.57-.57h-.58V98.93h.58a.57.57,0,0,0,.57-.57V96.08a.57.57,0,0,0-.57-.57h-.58v-4a.57.57,0,0,0-.57-.57h-8a.58.58,0,0,0-.58.57v4.57a.58.58,0,0,0,.58.57h.57v1.14H33.2a.58.58,0,0,0-.58.57v2.28a.57.57,0,0,0,.58.57h.57v1.15H31.48v1.14H65.72v-1.14ZM54.31,76.11h.54a5.15,5.15,0,0,1-5.11,4.56h-.53A5.12,5.12,0,0,1,54.31,76.11ZM52.6,70.4h.52a3.42,3.42,0,0,1-3.38,2.85h-.52A3.42,3.42,0,0,1,52.6,70.4Zm-5.14,2.85a3.42,3.42,0,0,1-3.38-2.85h.53A3.42,3.42,0,0,1,48,73.25Zm0,7.42a5.14,5.14,0,0,1-5.1-4.56h.54A5.13,5.13,0,0,1,48,80.67Zm-5.71,16v1.14H34.91V96.65Zm-8-4.57h6.84v1.14H33.77Zm0,2.29h6.84v1.14H33.77Zm0,4.56h6.84v1.14H33.77Zm8,3.43H34.91v-1.15h6.84Zm11.42-3.43v1.14H46.32V98.93ZM52,96.65v1.14H45.18V96.65Zm-6.85-1.14V94.37H52v1.14ZM52,90.94H45.18V89.8H52Zm-6.85-5.7H52v1.14H45.18ZM44,87.52h6.84v1.14H44Zm0,5.7V92.08h6.84v1.14Zm8,9.14H45.18v-1.15H52ZM55.45,89.8a3.43,3.43,0,1,1,3.42,3.42A3.42,3.42,0,0,1,55.45,89.8Zm0,4.57H62.3v1.14H55.45Zm8,8H56.59v-1.15h6.85Zm0-2.29H56.59V98.93h6.85Zm0-2.28H56.59V96.65h6.85Z"/><path class="cls-39" d="M60,89.8a1.15,1.15,0,0,1-1.15,1.14v1.14a2.29,2.29,0,0,0,2.29-2.28Z"/><path class="cls-39" d="M56.59,89.8h1.14a1.14,1.14,0,0,1,1.14-1.14V87.52A2.28,2.28,0,0,0,56.59,89.8Z"/><path class="cls-39" d="M62.39,72.68a2.2,2.2,0,0,1-1.8-1.8.58.58,0,0,0-1.15,0,2.2,2.2,0,0,1-1.8,1.8.58.58,0,0,0-.57.57.57.57,0,0,0,.57.57,2.2,2.2,0,0,1,1.8,1.81.58.58,0,0,0,1.15,0,2.2,2.2,0,0,1,1.8-1.81.57.57,0,0,0,.57-.57A.58.58,0,0,0,62.39,72.68ZM60,74.07a3.36,3.36,0,0,0-.82-.82,3.5,3.5,0,0,0,.82-.81,3.28,3.28,0,0,0,.81.81A3.16,3.16,0,0,0,60,74.07Z"/><path class="cls-39" d="M39.56,85.24a2.21,2.21,0,0,1-1.8-1.81.58.58,0,0,0-.57-.57.57.57,0,0,0-.57.57,2.21,2.21,0,0,1-1.8,1.81.56.56,0,0,0-.57.57.57.57,0,0,0,.57.57,2.21,2.21,0,0,1,1.8,1.8.56.56,0,0,0,.57.57.57.57,0,0,0,.57-.57,2.21,2.21,0,0,1,1.8-1.8.57.57,0,0,0,.57-.57A.56.56,0,0,0,39.56,85.24Zm-2.37,1.38a3.16,3.16,0,0,0-.82-.81,3.2,3.2,0,0,0,.82-.82,3.2,3.2,0,0,0,.82.82A3.16,3.16,0,0,0,37.19,86.62Z"/><polygon class="cls-39" points="64.01 82.95 64.01 81.24 62.87 81.24 62.87 82.95 61.16 82.95 61.16 84.09 62.87 84.09 62.87 85.81 64.01 85.81 64.01 84.09 65.72 84.09 65.72 82.95 64.01 82.95"/><path class="cls-39" d="M40.61,79.53V79H39.47v.57A3.43,3.43,0,0,0,42.9,83V81.81A2.29,2.29,0,0,1,40.61,79.53Z"/><path class="cls-42" d="M162,87.14l5.72-1.65s4.78,3.79,8.78.58c0,0,5.13,3.08,7.94-.86,0,0,2.7,3.22,5.75,1.85l-.39,15.73H163.23Z"/><rect class="cls-40" x="177.68" y="90.87" width="7.39" height="5.9"/><path class="cls-46" d="M168.49,83.29h8s-1.85,5-4.68,4.33A4.6,4.6,0,0,1,168.49,83.29Z"/><path class="cls-46" d="M186.11,83.29h6.74s-.07,4.16-5.11,4.33C187.74,87.62,184,85,186.11,83.29Z"/><polygon class="cls-40" points="164.97 73.83 187.74 74.47 192.07 82.58 160.21 82.58 164.97 73.83"/><path class="cls-39" d="M183.77,89.87H179a2.34,2.34,0,0,0-2.34,2.34v3.62A2.34,2.34,0,0,0,179,98.17h4.73a2.34,2.34,0,0,0,2.34-2.34V92.21A2.34,2.34,0,0,0,183.77,89.87Zm.63,6a.64.64,0,0,1-.63.64H179a.64.64,0,0,1-.63-.64V92.21a.64.64,0,0,1,.63-.64h4.73a.64.64,0,0,1,.63.64Z"/><path class="cls-39" d="M193.83,83.28a.75.75,0,0,0-.12-.41l-5.17-9.09a.85.85,0,0,0-.73-.43H165.09a.82.82,0,0,0-.73.43l-5.17,9.09a.84.84,0,0,0-.11.41,5,5,0,0,0,3,4.56v15a.86.86,0,0,0,.85.85H190a.86.86,0,0,0,.86-.85V88a.25.25,0,0,0,0-.09A5,5,0,0,0,193.83,83.28Zm-28.24-8.22h21.72l4,7.1H161.56Zm18.22,8.8a3.28,3.28,0,0,1-6.45,0Zm-8.26,0a3.28,3.28,0,0,1-6.45,0Zm-14.71,0h6.45a3.28,3.28,0,0,1-6.45,0ZM173.39,102h-4.9v-9.2a1.22,1.22,0,0,1,1.22-1.21h2.48a1.21,1.21,0,0,1,1.21,1.21V102Zm15.74,0h-14v-9.2a2.92,2.92,0,0,0-2.92-2.91H169.7a2.92,2.92,0,0,0-2.92,2.91V102h-3V88.26h.29a5,5,0,0,0,4.14-2.2,5,5,0,0,0,8.26,0,5,5,0,0,0,8.25,0,5,5,0,0,0,4.13,2.2h.29V102Zm-.29-15.42a3.27,3.27,0,0,1-3.22-2.69h6.45A3.29,3.29,0,0,1,188.84,86.56Z"/></g></g></svg>