<svg xmlns="http://www.w3.org/2000/svg" xmlns:xlink="http://www.w3.org/1999/xlink" viewBox="0 0 215.3 105.78"><defs><style>.cls-1{opacity:0.42;}.cls-2{opacity:0.3;}.cls-3{fill:url(#linear-gradient);}.cls-4{fill:url(#linear-gradient-2);}.cls-5{fill:url(#linear-gradient-3);}.cls-6{fill:url(#linear-gradient-4);}.cls-7{fill:url(#linear-gradient-5);}.cls-8{fill:url(#linear-gradient-6);}.cls-9{fill:url(#linear-gradient-7);}.cls-10{fill:url(#linear-gradient-8);}.cls-11{fill:url(#linear-gradient-9);}.cls-12{fill:url(#linear-gradient-10);}.cls-13{fill:url(#linear-gradient-11);}.cls-14{fill:url(#linear-gradient-12);}.cls-15{fill:url(#linear-gradient-13);}.cls-16{fill:url(#linear-gradient-14);}.cls-17{fill:url(#linear-gradient-15);}.cls-18{fill:url(#linear-gradient-16);}.cls-19{fill:url(#linear-gradient-17);}.cls-20{fill:url(#linear-gradient-18);}.cls-21{fill:url(#linear-gradient-19);}.cls-22{fill:url(#linear-gradient-20);}.cls-23{fill:url(#linear-gradient-21);}.cls-24{fill:url(#linear-gradient-23);}.cls-25{fill:url(#linear-gradient-24);}.cls-26{fill:url(#linear-gradient-25);}.cls-27{fill:url(#linear-gradient-26);}.cls-28{fill:url(#linear-gradient-27);}.cls-29{fill:url(#linear-gradient-28);}.cls-30{fill:url(#linear-gradient-29);}.cls-31{fill:url(#linear-gradient-30);}.cls-32{fill:url(#linear-gradient-31);}.cls-33{fill:url(#linear-gradient-32);}.cls-34{fill:url(#linear-gradient-33);}.cls-35{fill:url(#linear-gradient-34);}.cls-36{fill:url(#linear-gradient-36);}.cls-37{fill:url(#linear-gradient-37);}.cls-38{fill:url(#linear-gradient-38);}.cls-39{fill:url(#linear-gradient-39);}.cls-40{fill:url(#linear-gradient-40);}.cls-41{fill:#0cbf6d;}.cls-42{fill:#70f2b1;}.cls-43{fill:#fdfffe;}.cls-44{fill:url(#linear-gradient-41);}.cls-45{fill:url(#linear-gradient-42);}</style><linearGradient id="linear-gradient" x1="25.45" y1="60.97" x2="198.51" y2="60.97" gradientUnits="userSpaceOnUse"><stop offset="0" stop-color="#2ad38b"/><stop offset="0.58" stop-color="#28de86"/><stop offset="1" stop-color="#0fd186"/></linearGradient><linearGradient id="linear-gradient-2" x1="51.04" y1="74.76" x2="175.14" y2="74.76" xlink:href="#linear-gradient"/><linearGradient id="linear-gradient-3" x1="197.42" y1="73.18" x2="207.15" y2="73.18" xlink:href="#linear-gradient"/><linearGradient id="linear-gradient-4" x1="124.25" y1="12.49" x2="139.24" y2="12.49" gradientTransform="translate(113.54 -118.58) rotate(76.67)" xlink:href="#linear-gradient"/><linearGradient id="linear-gradient-5" x1="56.89" y1="30.8" x2="63.31" y2="30.8" xlink:href="#linear-gradient"/><linearGradient id="linear-gradient-6" x1="158" y1="24.92" x2="164.42" y2="24.92" xlink:href="#linear-gradient"/><linearGradient id="linear-gradient-7" x1="87.21" y1="3.21" x2="93.63" y2="3.21" xlink:href="#linear-gradient"/><linearGradient id="linear-gradient-8" x1="199.21" y1="84.94" x2="201.84" y2="84.94" xlink:href="#linear-gradient"/><linearGradient id="linear-gradient-9" x1="158.71" y1="2.22" x2="160.68" y2="2.22" xlink:href="#linear-gradient"/><linearGradient id="linear-gradient-10" x1="60.08" y1="7.15" x2="62.66" y2="7.15" xlink:href="#linear-gradient"/><linearGradient id="linear-gradient-11" x1="5.7" y1="35.91" x2="9.12" y2="35.91" xlink:href="#linear-gradient"/><linearGradient id="linear-gradient-12" x1="211.88" y1="48.45" x2="215.3" y2="48.45" xlink:href="#linear-gradient"/><linearGradient id="linear-gradient-13" x1="27.67" y1="28.98" x2="42.19" y2="28.98" xlink:href="#linear-gradient"/><linearGradient id="linear-gradient-14" x1="11.84" y1="81.93" x2="15.26" y2="81.93" xlink:href="#linear-gradient"/><linearGradient id="linear-gradient-15" x1="190.38" y1="30.8" x2="204.46" y2="30.8" xlink:href="#linear-gradient"/><linearGradient id="linear-gradient-16" x1="6.63" y1="62.62" x2="20.47" y2="62.62" xlink:href="#linear-gradient"/><linearGradient id="linear-gradient-17" x1="77.25" y1="12.49" x2="83.02" y2="12.49" xlink:href="#linear-gradient"/><linearGradient id="linear-gradient-18" x1="79.39" y1="12.49" x2="80.89" y2="12.49" xlink:href="#linear-gradient"/><linearGradient id="linear-gradient-19" x1="170.97" y1="19.24" x2="176.75" y2="19.24" xlink:href="#linear-gradient"/><linearGradient id="linear-gradient-20" x1="173.11" y1="19.24" x2="174.61" y2="19.24" xlink:href="#linear-gradient"/><linearGradient id="linear-gradient-21" x1="45.77" y1="36.69" x2="50.29" y2="36.69" xlink:href="#linear-gradient"/><linearGradient id="linear-gradient-23" x1="20.07" y1="82.18" x2="23.87" y2="82.18" xlink:href="#linear-gradient"/><linearGradient id="linear-gradient-24" x1="195.21" y1="19.24" x2="199.01" y2="19.24" xlink:href="#linear-gradient"/><linearGradient id="linear-gradient-25" x1="193.62" y1="72.08" x2="197.42" y2="72.08" xlink:href="#linear-gradient"/><linearGradient id="linear-gradient-26" x1="29.51" y1="17.1" x2="33.31" y2="17.1" xlink:href="#linear-gradient"/><linearGradient id="linear-gradient-27" x1="117.58" y1="11.74" x2="122.7" y2="11.74" xlink:href="#linear-gradient"/><linearGradient id="linear-gradient-28" x1="136.84" y1="30.8" x2="180.67" y2="30.8" xlink:href="#linear-gradient"/><linearGradient id="linear-gradient-29" x1="131.77" y1="30.8" x2="135.7" y2="30.8" xlink:href="#linear-gradient"/><linearGradient id="linear-gradient-30" x1="123.5" y1="30.8" x2="129.28" y2="30.8" xlink:href="#linear-gradient"/><linearGradient id="linear-gradient-31" x1="125.64" y1="30.8" x2="127.14" y2="30.8" xlink:href="#linear-gradient"/><linearGradient id="linear-gradient-32" x1="105.17" y1="23.16" x2="110.94" y2="23.16" xlink:href="#linear-gradient"/><linearGradient id="linear-gradient-33" x1="107.31" y1="23.16" x2="108.81" y2="23.16" xlink:href="#linear-gradient"/><linearGradient id="linear-gradient-34" x1="163.72" y1="47.15" x2="168.24" y2="47.15" xlink:href="#linear-gradient"/><linearGradient id="linear-gradient-36" x1="10" y1="93.24" x2="37.65" y2="93.24" xlink:href="#linear-gradient"/><linearGradient id="linear-gradient-37" x1="40.53" y1="23.16" x2="92.86" y2="23.16" xlink:href="#linear-gradient"/><linearGradient id="linear-gradient-38" x1="169.88" y1="47.52" x2="202.94" y2="47.52" xlink:href="#linear-gradient"/><linearGradient id="linear-gradient-39" x1="96.68" y1="23.16" x2="103" y2="23.16" xlink:href="#linear-gradient"/><linearGradient id="linear-gradient-40" x1="22.35" y1="54.49" x2="25.3" y2="54.49" xlink:href="#linear-gradient"/><linearGradient id="linear-gradient-41" x1="38.99" y1="58.71" x2="68.39" y2="58.71" xlink:href="#linear-gradient"/><linearGradient id="linear-gradient-42" x1="159.1" y1="76.05" x2="182.55" y2="76.05" xlink:href="#linear-gradient"/></defs><title>Asset 1</title><g id="Layer_2" data-name="Layer 2"><g id="Payment_Methods" data-name="Payment Methods"><g class="cls-1"><g class="cls-2"><path class="cls-3" d="M198.51,105.78a85.17,85.17,0,0,0-7.35-34.71,27,27,0,0,0-32.26-37.4,85.08,85.08,0,0,0-45.81-13.31q-3.15,0-6.24.23a22,22,0,0,0-33.79,9.72A85.69,85.69,0,0,0,55.25,42.93a24.71,24.71,0,0,0-5.41-.61A24.39,24.39,0,0,0,31,82.17a85.56,85.56,0,0,0-3.31,23.61Z"/></g><g class="cls-2"><path class="cls-4" d="M175.14,105.78a62.05,62.05,0,1,0-124.1,0Z"/></g><g class="cls-2"><path class="cls-5" d="M207.15,73.18a4.87,4.87,0,1,1-4.87-4.87A4.87,4.87,0,0,1,207.15,73.18Z"/></g><g class="cls-2"><circle class="cls-6" cx="131.75" cy="12.49" r="7.49" transform="translate(89.22 137.81) rotate(-76.67)"/></g><g class="cls-2"><path class="cls-7" d="M63.31,30.8a3.21,3.21,0,1,1-3.21-3.21A3.21,3.21,0,0,1,63.31,30.8Z"/></g><g class="cls-2"><circle class="cls-8" cx="161.21" cy="24.92" r="3.21"/></g><g class="cls-2"><path class="cls-9" d="M93.63,3.21A3.21,3.21,0,1,1,90.42,0,3.21,3.21,0,0,1,93.63,3.21Z"/></g><g class="cls-2"><path class="cls-10" d="M201.84,84.94a1.32,1.32,0,1,1-1.31-1.31A1.32,1.32,0,0,1,201.84,84.94Z"/></g><g class="cls-2"><path class="cls-11" d="M160.68,2.22a1,1,0,1,1-1-1A1,1,0,0,1,160.68,2.22Z"/></g><g class="cls-2"><circle class="cls-12" cx="61.37" cy="7.15" r="1.29"/></g><g class="cls-2"><path class="cls-13" d="M9.12,35.91a1.71,1.71,0,1,1-1.71-1.72A1.71,1.71,0,0,1,9.12,35.91Z"/></g><g class="cls-2"><path class="cls-14" d="M215.3,48.45a1.71,1.71,0,1,1-1.71-1.71A1.71,1.71,0,0,1,215.3,48.45Z"/></g><g class="cls-2"><circle class="cls-15" cx="34.93" cy="28.98" r="7.26"/></g><g class="cls-2"><path class="cls-16" d="M15.26,81.93a1.71,1.71,0,1,1-1.71-1.71A1.72,1.72,0,0,1,15.26,81.93Z"/></g><g class="cls-2"><path class="cls-17" d="M204.46,30.8a7,7,0,1,1-7-7A7,7,0,0,1,204.46,30.8Z"/></g><g class="cls-2"><circle class="cls-18" cx="13.55" cy="62.62" r="6.92"/></g></g><path class="cls-19" d="M82.27,13.24H78a.75.75,0,0,1,0-1.5h4.27a.75.75,0,0,1,0,1.5Z"/><path class="cls-20" d="M80.14,15.38a.74.74,0,0,1-.75-.75V10.36a.75.75,0,0,1,1.5,0v4.27A.75.75,0,0,1,80.14,15.38Z"/><path class="cls-21" d="M176,20h-4.28a.75.75,0,0,1,0-1.5H176a.75.75,0,0,1,0,1.5Z"/><path class="cls-22" d="M173.86,22.13a.76.76,0,0,1-.75-.75V17.1a.75.75,0,1,1,1.5,0v4.28A.76.76,0,0,1,173.86,22.13Z"/><path class="cls-23" d="M46.52,39a.75.75,0,0,1-.53-.22.74.74,0,0,1,0-1.06l3-3a.75.75,0,0,1,1.06,1.06l-3,3A.79.79,0,0,1,46.52,39Z"/><path class="cls-23" d="M49.54,39a.77.77,0,0,1-.53-.22l-3-3a.74.74,0,0,1,0-1.06.75.75,0,0,1,1.06,0l3,3a.75.75,0,0,1,0,1.06A.79.79,0,0,1,49.54,39Z"/><polygon class="cls-24" points="20.07 81.09 21.97 79.99 23.87 81.09 23.87 83.28 21.97 84.38 20.07 83.28 20.07 81.09"/><polygon class="cls-25" points="195.21 18.14 197.11 17.05 199.01 18.14 199.01 20.34 197.11 21.43 195.21 20.34 195.21 18.14"/><polygon class="cls-26" points="193.62 70.98 195.52 69.89 197.42 70.98 197.42 73.17 195.52 74.27 193.62 73.17 193.62 70.98"/><polygon class="cls-27" points="29.51 16 31.41 14.91 33.31 16 33.31 18.2 31.41 19.29 29.51 18.2 29.51 16"/><polygon class="cls-28" points="117.58 10.27 120.14 8.79 122.7 10.27 122.7 13.22 120.14 14.7 117.58 13.22 117.58 10.27"/><path class="cls-29" d="M179.92,31.55H137.59a.75.75,0,0,1,0-1.5h42.33a.75.75,0,0,1,0,1.5Z"/><path class="cls-30" d="M135,31.55h-2.43a.75.75,0,0,1,0-1.5H135a.75.75,0,0,1,0,1.5Z"/><path class="cls-31" d="M128.53,31.55h-4.28a.75.75,0,0,1,0-1.5h4.28a.75.75,0,0,1,0,1.5Z"/><path class="cls-32" d="M126.39,33.69a.75.75,0,0,1-.75-.75V28.67a.75.75,0,0,1,1.5,0v4.27A.75.75,0,0,1,126.39,33.69Z"/><path class="cls-33" d="M110.19,23.91h-4.27a.75.75,0,0,1,0-1.5h4.27a.75.75,0,0,1,0,1.5Z"/><path class="cls-34" d="M108.06,26a.74.74,0,0,1-.75-.75V21a.75.75,0,0,1,1.5,0v4.27A.75.75,0,0,1,108.06,26Z"/><path class="cls-35" d="M167.49,49.41a.73.73,0,0,1-.53-.22l-3-3a.74.74,0,0,1,0-1.06.75.75,0,0,1,1.06,0l3,3a.75.75,0,0,1,0,1.06A.74.74,0,0,1,167.49,49.41Z"/><path class="cls-35" d="M164.47,49.41a.71.71,0,0,1-.53-.22.74.74,0,0,1,0-1.06l3-3A.75.75,0,0,1,168,46.17l-3,3A.74.74,0,0,1,164.47,49.41Z"/><path class="cls-36" d="M36.9,94H10.75a.75.75,0,0,1,0-1.5H36.9a.75.75,0,0,1,0,1.5Z"/><path class="cls-37" d="M92.11,23.91H41.28a.75.75,0,0,1,0-1.5H92.11a.75.75,0,0,1,0,1.5Z"/><path class="cls-38" d="M202.19,48.27H170.63a.75.75,0,0,1,0-1.5h31.56a.75.75,0,0,1,0,1.5Z"/><path class="cls-39" d="M102.25,23.91H97.43a.75.75,0,0,1,0-1.5h4.82a.75.75,0,0,1,0,1.5Z"/><polygon class="cls-40" points="22.35 53.64 23.82 52.79 25.3 53.64 25.3 55.34 23.82 56.19 22.35 55.34 22.35 53.64"/><path class="cls-41" d="M192.24,104.86H8.06a.75.75,0,0,1,0-1.5H192.24a.75.75,0,0,1,0,1.5Z"/><path class="cls-41" d="M197.67,104.86H195a.75.75,0,0,1,0-1.5h2.71a.75.75,0,0,1,0,1.5Z"/><path class="cls-41" d="M5.36,104.86H.75a.75.75,0,0,1,0-1.5H5.36a.75.75,0,0,1,0,1.5Z"/><rect class="cls-42" x="69" y="96.23" width="84.99" height="6.38" rx="0.98"/><rect class="cls-42" x="73.58" y="46.42" width="76.61" height="49.82" rx="0.98"/><rect class="cls-43" x="78.29" y="51.21" width="68.08" height="40.58" rx="0.98"/><path class="cls-41" d="M154.5,95.15h-2.57V49.75a5.29,5.29,0,0,0-5.29-5.28H76.85a5.29,5.29,0,0,0-5.28,5.28v45.4H69a1.28,1.28,0,0,0-1.28,1.28V98a6.9,6.9,0,0,0,6.89,6.89h74.3A6.9,6.9,0,0,0,155.79,98V96.43A1.28,1.28,0,0,0,154.5,95.15ZM74.14,49.75A2.71,2.71,0,0,1,76.85,47h69.79a2.72,2.72,0,0,1,2.72,2.71V95H74.14Zm45.83,48v1H103.52v-1Zm33.25.25a4.32,4.32,0,0,1-4.32,4.32H74.6A4.31,4.31,0,0,1,70.28,98v-.25H101V100a1.28,1.28,0,0,0,1.29,1.28h19a1.28,1.28,0,0,0,1.28-1.28V97.72h30.68Z"/><path class="cls-41" d="M143.45,49.48H80a3.8,3.8,0,0,0-3.8,3.8V91.47a1.28,1.28,0,0,0,1.28,1.29H146a1.29,1.29,0,0,0,1.29-1.29V53.28A3.82,3.82,0,0,0,143.45,49.48Zm1.23,40.71H78.81V53.28A1.24,1.24,0,0,1,80,52.05h63.41a1.24,1.24,0,0,1,1.23,1.23Z"/><path class="cls-42" d="M92.05,60.32l1.19,2.41a.68.68,0,0,0,.51.37l2.66.39a.67.67,0,0,1,.37,1.15l-1.92,1.88a.68.68,0,0,0-.2.59l.46,2.65a.68.68,0,0,1-1,.71l-2.38-1.25a.7.7,0,0,0-.63,0l-2.38,1.25a.68.68,0,0,1-1-.71l.46-2.65a.65.65,0,0,0-.2-.59l-1.92-1.88a.67.67,0,0,1,.37-1.15l2.66-.39a.68.68,0,0,0,.51-.37l1.19-2.41a.68.68,0,0,1,1.21,0Z"/><path class="cls-41" d="M87.2,67.12l-.42,2.47a1.68,1.68,0,0,0,2.44,1.78l2.23-1.17,2.22,1.17a1.68,1.68,0,0,0,2.44-1.78l-.42-2.47,1.8-1.76a1.69,1.69,0,0,0-.94-2.87l-2.48-.36L93,59.88a1.69,1.69,0,0,0-3,0l-1.11,2.25-2.48.36A1.66,1.66,0,0,0,85,63.64a1.69,1.69,0,0,0,.42,1.73Zm2.09-3a1.69,1.69,0,0,0,1.27-.92l.89-1.79.88,1.79a1.69,1.69,0,0,0,1.27.92l2,.29-1.43,1.4a1.66,1.66,0,0,0-.48,1.49l.33,2-1.77-.93a1.68,1.68,0,0,0-.78-.2,1.72,1.72,0,0,0-.79.2l-1.77.93.34-2a1.7,1.7,0,0,0-.49-1.49l-1.43-1.4Z"/><path class="cls-41" d="M138.27,70.45H101.48a1,1,0,0,0,0,2h36.79a1,1,0,1,0,0-2Z"/><path class="cls-41" d="M138.27,74.65H84.45a1,1,0,1,0,0,2h53.82a1,1,0,1,0,0-2Z"/><path class="cls-41" d="M138.27,78.84H84.45a1,1,0,0,0,0,2h53.82a1,1,0,1,0,0-2Z"/><polygon class="cls-44" points="46.05 45.89 49.96 47.27 53.66 43.74 56.56 47.27 61.32 45.25 62.17 50.11 66.84 51.57 65.47 55.64 68.39 59.55 65.47 62.09 66.24 65.46 62.55 67.53 61.09 71.83 57.22 70.84 53.66 73.68 50.04 70.68 46.05 71.83 44.36 67.84 40.67 66.31 41.83 62.09 38.98 59.04 41.59 55.97 40.29 51.57 45.51 50.8 46.05 45.89"/><path class="cls-41" d="M66.65,55.55l1.22-3.86a1,1,0,0,0-.09-.82,1,1,0,0,0-.66-.48l-4-.87-.86-4a1,1,0,0,0-.48-.66,1,1,0,0,0-.82-.1L57.14,46l-2.73-3a1.05,1.05,0,0,0-.75-.32,1.07,1.07,0,0,0-.75.32l-2.73,3-3.86-1.23a1.07,1.07,0,0,0-.82.09,1,1,0,0,0-.48.67l-.87,4-3.95.87a1,1,0,0,0-.66.48,1,1,0,0,0-.09.82l1.22,3.86-3,2.73a1,1,0,0,0,0,1.5l3,2.73-1.22,3.85a1,1,0,0,0,.09.82,1,1,0,0,0,.66.49l4,.86.86,4a1,1,0,0,0,.49.66,1,1,0,0,0,.82.09L50.19,72l2.72,3a1,1,0,0,0,.76.33,1,1,0,0,0,.75-.33l2.72-3L61,73.24a1,1,0,0,0,.82-.09,1,1,0,0,0,.49-.66l.86-4,4-.86a1,1,0,0,0,.66-.49,1,1,0,0,0,.09-.82l-1.22-3.85,3-2.73a1,1,0,0,0,0-1.5Zm-1.86,5.89a1,1,0,0,0-.28,1.06l1.08,3.42-3.5.76a1,1,0,0,0-.78.78L60.55,71l-3.41-1.09a1,1,0,0,0-1.07.28l-2.41,2.66-2.41-2.65a1,1,0,0,0-.75-.34,1.06,1.06,0,0,0-.31.05L46.77,71,46,67.46a1,1,0,0,0-.78-.78l-3.5-.76,1.09-3.42a1,1,0,0,0-.28-1.06L39.88,59l2.65-2.41a1,1,0,0,0,.29-1.07l-1.09-3.41,3.5-.77A1,1,0,0,0,46,50.6l.76-3.5,3.42,1.09a1,1,0,0,0,1.06-.29l2.41-2.65,2.41,2.65a1,1,0,0,0,1.07.29l3.41-1.09.77,3.5a1,1,0,0,0,.77.78l3.5.76-1.08,3.42a1,1,0,0,0,.28,1.06L67.44,59Z"/><path class="cls-43" d="M47.84,63.4,58,53.21l1.44,1.44-10.2,10.2Z"/><path class="cls-43" d="M51.62,56A3.06,3.06,0,1,0,48.56,59,3.06,3.06,0,0,0,51.62,56Zm-4.08,0a1,1,0,1,1,1,1A1,1,0,0,1,47.54,56Z"/><path class="cls-43" d="M58.76,59a3.06,3.06,0,1,0,3.06,3.06A3.06,3.06,0,0,0,58.76,59Zm0,4.08a1,1,0,1,1,1-1A1,1,0,0,1,58.76,63.11Z"/><rect class="cls-45" x="159.1" y="63.97" width="23.46" height="24.15" rx="2.77"/><path class="cls-43" d="M171.4,87.56h3.44l.56-10,3.09-.38.37-2.43L175.13,74s-.71-5,3.36-3.86a3.52,3.52,0,0,0,.91-.16l.28-2.72s-6.73-3.4-8.28,3.49v3.53l-1.89.48V77l1.75.18Z"/><path class="cls-41" d="M182.52,63.94a3.79,3.79,0,0,0-2.67-1.1H161.77A3.76,3.76,0,0,0,158,66.6V84.72a3.76,3.76,0,0,0,3.75,3.76H179.9a3.76,3.76,0,0,0,3.75-3.76V66.6A3.68,3.68,0,0,0,182.52,63.94ZM171.59,76.41h-1.5v-1.5h1.5a.76.76,0,0,0,.75-.75V70.72a2.73,2.73,0,0,1,.78-2.33,4.48,4.48,0,0,1,2.38-1,8.94,8.94,0,0,1,3.36.16c-.09.59-.19,1.3-.27,1.83a5.7,5.7,0,0,0-1.83-.06,2.32,2.32,0,0,0-2.17,2.35v2.46a.76.76,0,0,0,.75.75h2.79l-.37,1.5h-2.42a.76.76,0,0,0-.75.75V87h-2.25V77.16A.76.76,0,0,0,171.59,76.41Zm10.56,8.31A2.25,2.25,0,0,1,179.9,87h-3.81V77.91h2.26a.74.74,0,0,0,.72-.57l.76-3a.77.77,0,0,0-.14-.64.72.72,0,0,0-.59-.29h-3V71.7c0-.34.07-.72.92-.87a4.31,4.31,0,0,1,1.79.17.88.88,0,0,0,.83,0,.72.72,0,0,0,.32-.51s.34-2.27.5-3.31a.77.77,0,0,0-.54-.84,12,12,0,0,0-4.62-.35,6,6,0,0,0-3.15,1.31,3.86,3.86,0,0,0-1.29,3.08v3.08h-1.52a.75.75,0,0,0-.75.75v3a.75.75,0,0,0,.75.75h1.51V87h-9.07a2.25,2.25,0,0,1-2.25-2.25V66.6a2.25,2.25,0,0,1,2.25-2.25h18.08a2.3,2.3,0,0,1,2.3,2.25Z"/></g></g></svg>